<svg width="30" height="30" viewBox="0 0 30 30" fill="none" xmlns="http://www.w3.org/2000/svg">
<path d="M16.5261 6.44848V6.44918C16.0331 6.34641 15.5225 6.2925 14.9994 6.2925C14.4763 6.2925 13.9658 6.34635 13.4727 6.44918V2.05107C13.4727 1.62937 13.6434 1.24822 13.9203 0.972012C14.1966 0.695098 14.5777 0.524414 14.9994 0.524414C15.8428 0.524414 16.5261 1.20838 16.5261 2.05107V6.44848Z" fill="#F95428"/>
<path d="M26.1852 24.2326C26.4056 24.4529 26.5419 24.7564 26.5419 25.0927C26.5419 25.7641 25.9971 26.3088 25.3257 26.3088H18.1667H11.8335H4.67443C4.33804 26.3088 4.03453 26.1725 3.81427 25.9522C3.59396 25.7326 3.45761 25.4283 3.45761 25.0927C3.45761 24.4849 3.9031 23.9814 4.48494 23.8905C4.54646 23.8807 4.61009 23.8758 4.67443 23.8758H25.3258C25.3894 23.8758 25.4524 23.8807 25.5139 23.8905C25.774 23.9311 26.0076 24.0543 26.1852 24.2326Z" fill="#F95428"/>
<path opacity="0.25" d="M26.1853 24.2326C26.0076 24.0543 25.774 23.9312 25.5139 23.8906C25.4524 23.8808 25.3894 23.8759 25.3257 23.8759H20.3957C20.4594 23.8759 20.5223 23.8808 20.5839 23.8906C20.844 23.9312 21.0776 24.0543 21.2552 24.2326C21.4755 24.4529 21.6119 24.7564 21.6119 25.0927C21.6119 25.7641 21.0671 26.3088 20.3958 26.3088H25.3258C25.9972 26.3088 26.5419 25.764 26.5419 25.0927C26.5419 24.7564 26.4056 24.4529 26.1853 24.2326Z" fill="#4D4D4D"/>
<path d="M11.8335 26.3089H18.1667C18.1667 28.0579 16.7484 29.4755 15.0001 29.4755C13.2511 29.4755 11.8335 28.058 11.8335 26.3089Z" fill="#F7B239"/>
<path opacity="0.25" d="M11.8335 26.3089H18.1667C18.1667 28.0579 16.7484 29.4755 15.0001 29.4755C13.2511 29.4755 11.8335 28.058 11.8335 26.3089Z" fill="#4D4D4D"/>
<path d="M25.5167 23.7878H4.48282H4.48212C4.48212 22.9927 4.61641 22.2101 4.87516 21.4702C5.13321 20.7303 5.51436 20.0331 6.00878 19.4107C6.99766 18.1658 7.53544 16.6231 7.53544 15.0335V13.7565C7.53544 11.6949 8.37116 9.82905 9.72157 8.47864C10.73 7.47089 12.0245 6.74989 13.4728 6.44919C13.9658 6.34642 14.4763 6.29251 14.9995 6.29251C15.5226 6.29251 16.0331 6.34636 16.5261 6.44919C19.9165 7.15343 22.4635 10.1571 22.4635 13.7565V15.0335C22.4635 15.828 22.5978 16.6112 22.8565 17.3511C23.1146 18.0911 23.4957 18.7883 23.9901 19.4107C24.9789 20.6555 25.5167 22.1976 25.5167 23.7878Z" fill="#F7B239"/>
<path opacity="0.25" d="M23.99 19.4107C23.4956 18.7883 23.1145 18.091 22.8564 17.3511C22.5977 16.6112 22.4634 15.828 22.4634 15.0335V13.7565C22.4634 10.1571 19.9164 7.15343 16.526 6.44919C16.033 6.34642 15.5225 6.29251 14.9994 6.29251C14.4762 6.29251 13.9658 6.34636 13.4727 6.44919C13.3444 6.47585 13.2178 6.50691 13.0921 6.54001C16.2903 7.38276 18.6485 10.2933 18.6485 13.7565V15.0335C18.6485 15.828 18.7828 16.6112 19.0416 17.3511C19.2996 18.0911 19.6808 18.7883 20.1752 19.4107C21.1641 20.6555 21.7018 22.1976 21.7018 23.7878H25.5167C25.5167 22.1976 24.9789 20.6555 23.99 19.4107Z" fill="#4D4D4D"/>
<path d="M26.0352 23.5031C25.9741 21.9007 25.3996 20.3413 24.4009 19.0843C23.9463 18.5119 23.5933 17.8706 23.3516 17.1778C23.1103 16.4879 22.988 15.7663 22.988 15.0333V13.7563C22.988 10.0604 20.4649 6.94312 17.0509 6.03527V2.05131C17.0509 0.920156 16.1307 0 14.9996 0C13.8684 0 12.9483 0.920156 12.9483 2.05131V6.03293C11.6001 6.38877 10.3636 7.09529 9.35091 8.10756C7.84201 9.61635 7.01109 11.6225 7.01109 13.7563V15.0333C7.01109 16.4987 6.50929 17.9374 5.59822 19.0842C5.07029 19.7488 4.66048 20.4934 4.38017 21.2968C4.13126 22.0088 3.99199 22.7498 3.9638 23.5033C3.35706 23.7757 2.9332 24.3851 2.9332 25.0922C2.9332 26.0523 3.71419 26.8333 4.67425 26.8333H11.3468C11.6023 28.621 13.1427 29.9999 15 29.9999C16.8572 29.9999 18.3977 28.621 18.6532 26.8333H25.3257C26.2857 26.8333 27.0667 26.0523 27.0667 25.0922C27.0666 24.385 26.6424 23.7753 26.0352 23.5031ZM13.9973 2.05131C13.9973 1.49865 14.447 1.049 14.9996 1.049C15.5522 1.049 16.0019 1.49859 16.0019 2.05131V5.83061C15.6735 5.78936 15.339 5.76785 14.9996 5.76785C14.6619 5.76785 14.3273 5.78883 13.9973 5.8299V2.05131ZM6.41953 19.7367C7.47744 18.4051 8.06003 16.7347 8.06003 15.0333V13.7563C8.06003 11.9027 8.78191 10.16 10.0925 8.84941C11.4039 7.53867 13.1466 6.81686 14.9996 6.81686C18.8261 6.81686 21.9391 9.92988 21.9391 13.7563V15.0333C21.9391 15.8846 22.0812 16.7226 22.3614 17.5237C22.6418 18.3274 23.0516 19.072 23.5796 19.7367C24.3998 20.7693 24.8869 22.0386 24.9762 23.3513H5.02277C5.06173 22.7684 5.17728 22.1955 5.37052 21.6428C5.61199 20.9503 5.96495 20.3089 6.41953 19.7367ZM14.9999 28.951C13.7225 28.951 12.6542 28.0398 12.4103 26.8334H17.5895C17.3456 28.0399 16.2772 28.951 14.9999 28.951ZM25.3255 25.7844H4.67413C4.29257 25.7844 3.98208 25.4739 3.98208 25.0923C3.98208 24.7107 4.29251 24.4003 4.67413 24.4003H25.3255C25.7071 24.4003 26.0176 24.7107 26.0176 25.0923C26.0176 25.4739 25.7071 25.7844 25.3255 25.7844Z" fill="#333333"/>
<path d="M6.4599 22.5476C6.40259 22.5476 6.34435 22.5382 6.28716 22.5183C6.01365 22.4229 5.86921 22.1238 5.9646 21.8503C6.18287 21.2246 6.50168 20.6453 6.91218 20.1284C7.21289 19.7499 7.48195 19.3406 7.71193 18.9118C7.8488 18.6566 8.16673 18.5605 8.42203 18.6975C8.67726 18.8344 8.77324 19.1523 8.6363 19.4075C8.37685 19.8914 8.0731 20.3534 7.73361 20.7809C7.39646 21.2054 7.13449 21.6814 6.95513 22.1957C6.8796 22.4121 6.67675 22.5476 6.4599 22.5476Z" fill="white"/>
<path d="M8.7788 18.2715C8.74452 18.2715 8.70954 18.2679 8.67591 18.2617C8.64239 18.2547 8.60952 18.2442 8.57806 18.2316C8.54659 18.2183 8.51583 18.2023 8.48712 18.1833C8.45847 18.1638 8.43187 18.1421 8.40731 18.1176C8.38353 18.0938 8.36114 18.0673 8.34228 18.0378C8.32341 18.0099 8.30729 17.9791 8.29399 17.9476C8.28075 17.9161 8.27097 17.8833 8.26394 17.8497C8.25767 17.8154 8.25415 17.7811 8.25415 17.7469C8.25415 17.6092 8.31011 17.4735 8.40726 17.3763C8.43181 17.3518 8.45829 17.3301 8.48706 17.3112C8.51583 17.2924 8.54653 17.2755 8.578 17.2629C8.60946 17.2496 8.64233 17.2399 8.67585 17.2329C8.74376 17.2189 8.81366 17.2189 8.88081 17.2329C8.91433 17.2399 8.94726 17.2496 8.97942 17.2629C9.01083 17.2755 9.04095 17.2923 9.06966 17.3112C9.09825 17.3301 9.12491 17.3518 9.1494 17.3763C9.24731 17.4735 9.30327 17.6091 9.30327 17.7469C9.30327 17.7812 9.29976 17.8155 9.29278 17.8497C9.28581 17.8833 9.27603 17.9161 9.26272 17.9476C9.24942 17.9791 9.23337 18.0098 9.21444 18.0378C9.19558 18.0672 9.1739 18.0938 9.1494 18.1176C9.12491 18.1421 9.09837 18.1638 9.06966 18.1833C9.04101 18.2022 9.01083 18.2183 8.97942 18.2316C8.94726 18.2442 8.91433 18.2547 8.88081 18.2617C8.84729 18.2679 8.81308 18.2715 8.7788 18.2715Z" fill="white"/>
<path d="M9.3839 12.8806C9.34212 12.8806 9.29981 12.8756 9.25751 12.8651C8.97632 12.7955 8.8047 12.5112 8.87436 12.2299C9.14794 11.1239 9.72292 10.109 10.5369 9.29497C10.9741 8.85809 11.469 8.48924 12.0077 8.19868C12.2628 8.0611 12.5808 8.15637 12.7183 8.41137C12.8559 8.66637 12.7606 8.98448 12.5057 9.12206C12.0565 9.3644 11.6436 9.67213 11.2785 10.037C10.5996 10.7159 10.1203 11.5614 9.89261 12.482C9.83354 12.7208 9.61933 12.8806 9.3839 12.8806Z" fill="white"/>
<path d="M13.6924 8.64222C13.4491 8.64222 13.2308 8.47188 13.1794 8.22415C13.1719 8.18812 13.1683 8.15226 13.1683 8.11687C13.1684 7.87358 13.3388 7.65538 13.5864 7.60405L13.7087 7.57868C13.9925 7.5198 14.2699 7.70202 14.3288 7.98562C14.3363 8.02165 14.3399 8.05751 14.3399 8.09296C14.3398 8.33624 14.1694 8.55438 13.9218 8.60577L13.7995 8.63114C13.7637 8.63858 13.7278 8.64222 13.6924 8.64222Z" fill="white"/>
<path d="M14.644 5.2217C14.3542 5.2217 14.1195 4.98686 14.1195 4.69723V2.44284C14.1195 2.15315 14.3543 1.91837 14.644 1.91837C14.9337 1.91837 15.1685 2.15321 15.1685 2.44284V4.69723C15.1685 4.98692 14.9337 5.2217 14.644 5.2217Z" fill="white"/>
</svg>
